<svg width="122" height="136" viewBox="0 0 122 136" fill="none" xmlns="http://www.w3.org/2000/svg">
<path d="M76.5852 38.5569C76.3147 38.2849 75.9997 38.0541 75.61 37.9274C74.3697 37.5246 73.204 36.7994 72.236 35.8326C71.2705 34.8659 70.5465 33.7011 70.1365 32.4439C68.9112 28.7679 66.1392 25.7846 62.6125 24.2454L58.9442 27.9136C59.2107 28.1814 59.5215 28.4081 59.9045 28.5351C62.4825 29.3944 64.5347 31.4476 65.388 34.0111C66.0362 35.9959 67.1825 37.8489 68.701 39.3676C69.9232 40.5899 71.3647 41.5554 72.913 42.2294L76.5852 38.5569Z" fill="#2AA7FF"/>
<path d="M60.693 43.8404C61.6695 42.8639 61.6695 41.2816 60.693 40.3054L53.6227 33.2351L50.0877 36.7701L55.3902 42.0726L41.2485 56.2156L35.9447 50.9131L32.4097 54.4481L39.481 61.5184C39.9692 62.0066 40.609 62.2509 41.2485 62.2509C41.888 62.2509 42.5277 62.0066 43.0162 61.5184L60.693 43.8404Z" fill="#2AA7FF"/>
<path d="M37.712 75.7814C34.5112 75.7814 31.3107 74.5631 28.874 72.1266C24.001 67.2536 24.001 59.3214 28.874 54.4484L67.7645 15.5569C68.702 14.6194 70.3622 14.6194 71.2997 15.5569L85.4427 29.6999C86.4192 30.6764 86.4192 32.2584 85.4427 33.2351L46.5512 72.1266C44.1147 74.5631 40.9137 75.7814 37.712 75.7814ZM32.4092 68.5914C35.3327 71.5161 40.09 71.5136 43.016 68.5914L80.14 31.4674L69.532 20.8594L32.4092 57.9836C29.4857 60.9084 29.4857 65.6664 32.4092 68.5914Z" fill="#2AA7FF"/>
<path d="M87.2102 37.5026C86.5705 37.5026 85.931 37.2584 85.4427 36.7701L64.2292 15.5569C63.7605 15.0881 63.4967 14.4534 63.4967 13.7894C63.4967 13.1254 63.7605 12.4906 64.2292 12.0219L71.3007 4.95161C72.2772 3.97511 73.8592 3.97511 74.836 4.95161L96.0482 26.1651C97.0247 27.1416 97.0247 28.7236 96.0482 29.7004L88.978 36.7706C88.4897 37.2589 87.8497 37.5026 87.2102 37.5026ZM69.532 13.7891L87.2102 31.4674L90.7455 27.9321L73.0685 10.2539L69.532 13.7891Z" fill="#2AA7FF"/>
<path d="M22.297 113.574C22.969 113.694 23.539 114.048 24.007 114.636C24.475 115.224 24.709 115.89 24.709 116.634C24.709 117.27 24.541 117.846 24.205 118.362C23.881 118.866 23.407 119.268 22.783 119.568C22.159 119.856 21.433 120 20.605 120H15.601V107.49H20.371C21.223 107.49 21.955 107.634 22.567 107.922C23.179 108.21 23.641 108.6 23.953 109.092C24.265 109.572 24.421 110.112 24.421 110.712C24.421 111.432 24.229 112.032 23.845 112.512C23.461 112.992 22.945 113.346 22.297 113.574ZM17.653 112.746H20.191C20.863 112.746 21.385 112.596 21.757 112.296C22.141 111.984 22.333 111.54 22.333 110.964C22.333 110.4 22.141 109.962 21.757 109.65C21.385 109.326 20.863 109.164 20.191 109.164H17.653V112.746ZM20.425 118.326C21.121 118.326 21.667 118.158 22.063 117.822C22.459 117.486 22.657 117.018 22.657 116.418C22.657 115.806 22.447 115.32 22.027 114.96C21.607 114.6 21.049 114.42 20.353 114.42H17.653V118.326H20.425ZM28.9909 106.68V120H26.9389V106.68H28.9909ZM35.987 120.162C35.051 120.162 34.205 119.952 33.449 119.532C32.693 119.1 32.099 118.5 31.667 117.732C31.235 116.952 31.019 116.052 31.019 115.032C31.019 114.024 31.241 113.13 31.685 112.35C32.129 111.57 32.735 110.97 33.503 110.55C34.271 110.13 35.129 109.92 36.077 109.92C37.025 109.92 37.883 110.13 38.651 110.55C39.419 110.97 40.025 111.57 40.469 112.35C40.913 113.13 41.135 114.024 41.135 115.032C41.135 116.04 40.907 116.934 40.451 117.714C39.995 118.494 39.371 119.1 38.579 119.532C37.799 119.952 36.935 120.162 35.987 120.162ZM35.987 118.38C36.515 118.38 37.007 118.254 37.463 118.002C37.931 117.75 38.309 117.372 38.597 116.868C38.885 116.364 39.029 115.752 39.029 115.032C39.029 114.312 38.891 113.706 38.615 113.214C38.339 112.71 37.973 112.332 37.517 112.08C37.061 111.828 36.569 111.702 36.041 111.702C35.513 111.702 35.021 111.828 34.565 112.08C34.121 112.332 33.767 112.71 33.503 113.214C33.239 113.706 33.107 114.312 33.107 115.032C33.107 116.1 33.377 116.928 33.917 117.516C34.469 118.092 35.159 118.38 35.987 118.38ZM47.4655 120.162C46.5295 120.162 45.6835 119.952 44.9275 119.532C44.1715 119.1 43.5775 118.5 43.1455 117.732C42.7135 116.952 42.4975 116.052 42.4975 115.032C42.4975 114.024 42.7195 113.13 43.1635 112.35C43.6075 111.57 44.2135 110.97 44.9815 110.55C45.7495 110.13 46.6075 109.92 47.5555 109.92C48.5035 109.92 49.3615 110.13 50.1295 110.55C50.8975 110.97 51.5035 111.57 51.9475 112.35C52.3915 113.13 52.6135 114.024 52.6135 115.032C52.6135 116.04 52.3855 116.934 51.9295 117.714C51.4735 118.494 50.8495 119.1 50.0575 119.532C49.2775 119.952 48.4135 120.162 47.4655 120.162ZM47.4655 118.38C47.9935 118.38 48.4855 118.254 48.9415 118.002C49.4095 117.75 49.7875 117.372 50.0755 116.868C50.3635 116.364 50.5075 115.752 50.5075 115.032C50.5075 114.312 50.3695 113.706 50.0935 113.214C49.8175 112.71 49.4515 112.332 48.9955 112.08C48.5395 111.828 48.0475 111.702 47.5195 111.702C46.9915 111.702 46.4995 111.828 46.0435 112.08C45.5995 112.332 45.2455 112.71 44.9815 113.214C44.7175 113.706 44.5855 114.312 44.5855 115.032C44.5855 116.1 44.8555 116.928 45.3955 117.516C45.9475 118.092 46.6375 118.38 47.4655 118.38ZM53.958 114.996C53.958 114 54.162 113.118 54.57 112.35C54.99 111.582 55.554 110.988 56.262 110.568C56.982 110.136 57.78 109.92 58.656 109.92C59.304 109.92 59.94 110.064 60.564 110.352C61.2 110.628 61.704 111 62.076 111.468V106.68H64.146V120H62.076V118.506C61.74 118.986 61.272 119.382 60.672 119.694C60.084 120.006 59.406 120.162 58.638 120.162C57.774 120.162 56.982 119.946 56.262 119.514C55.554 119.07 54.99 118.458 54.57 117.678C54.162 116.886 53.958 115.992 53.958 114.996ZM62.076 115.032C62.076 114.348 61.932 113.754 61.644 113.25C61.368 112.746 61.002 112.362 60.546 112.098C60.09 111.834 59.598 111.702 59.07 111.702C58.542 111.702 58.05 111.834 57.594 112.098C57.138 112.35 56.766 112.728 56.478 113.232C56.202 113.724 56.064 114.312 56.064 114.996C56.064 115.68 56.202 116.28 56.478 116.796C56.766 117.312 57.138 117.708 57.594 117.984C58.062 118.248 58.554 118.38 59.07 118.38C59.598 118.38 60.09 118.248 60.546 117.984C61.002 117.72 61.368 117.336 61.644 116.832C61.932 116.316 62.076 115.716 62.076 115.032ZM79.599 107.49V109.164H76.269V120H74.217V109.164H70.869V107.49H79.599ZM90.7671 114.798C90.7671 115.17 90.7431 115.506 90.6951 115.806H83.1171C83.1771 116.598 83.4711 117.234 83.9991 117.714C84.5271 118.194 85.1751 118.434 85.9431 118.434C87.0471 118.434 87.8271 117.972 88.2831 117.048H90.4971C90.1971 117.96 89.6511 118.71 88.8591 119.298C88.0791 119.874 87.1071 120.162 85.9431 120.162C84.9951 120.162 84.1431 119.952 83.3871 119.532C82.6431 119.1 82.0551 118.5 81.6231 117.732C81.2031 116.952 80.9931 116.052 80.9931 115.032C80.9931 114.012 81.1971 113.118 81.6051 112.35C82.0251 111.57 82.6071 110.97 83.3511 110.55C84.1071 110.13 84.9711 109.92 85.9431 109.92C86.8791 109.92 87.7131 110.124 88.4451 110.532C89.1771 110.94 89.7471 111.516 90.1551 112.26C90.5631 112.992 90.7671 113.838 90.7671 114.798ZM88.6251 114.15C88.6131 113.394 88.3431 112.788 87.8151 112.332C87.2871 111.876 86.6331 111.648 85.8531 111.648C85.1451 111.648 84.5391 111.876 84.0351 112.332C83.5311 112.776 83.2311 113.382 83.1351 114.15H88.6251ZM96.3865 120.162C95.6065 120.162 94.9045 120.024 94.2805 119.748C93.6685 119.46 93.1825 119.076 92.8225 118.596C92.4625 118.104 92.2705 117.558 92.2465 116.958H94.3705C94.4065 117.378 94.6045 117.732 94.9645 118.02C95.3365 118.296 95.7985 118.434 96.3505 118.434C96.9265 118.434 97.3705 118.326 97.6825 118.11C98.0065 117.882 98.1685 117.594 98.1685 117.246C98.1685 116.874 97.9885 116.598 97.6285 116.418C97.2805 116.238 96.7225 116.04 95.9545 115.824C95.2105 115.62 94.6045 115.422 94.1365 115.23C93.6685 115.038 93.2605 114.744 92.9125 114.348C92.5765 113.952 92.4085 113.43 92.4085 112.782C92.4085 112.254 92.5645 111.774 92.8765 111.342C93.1885 110.898 93.6325 110.55 94.2085 110.298C94.7965 110.046 95.4685 109.92 96.2245 109.92C97.3525 109.92 98.2585 110.208 98.9425 110.784C99.6385 111.348 100.011 112.122 100.059 113.106H98.0065C97.9705 112.662 97.7905 112.308 97.4665 112.044C97.1425 111.78 96.7045 111.648 96.1525 111.648C95.6125 111.648 95.1985 111.75 94.9105 111.954C94.6225 112.158 94.4785 112.428 94.4785 112.764C94.4785 113.028 94.5745 113.25 94.7665 113.43C94.9585 113.61 95.1925 113.754 95.4685 113.862C95.7445 113.958 96.1525 114.084 96.6925 114.24C97.4125 114.432 98.0005 114.63 98.4565 114.834C98.9245 115.026 99.3265 115.314 99.6625 115.698C99.9985 116.082 100.173 116.592 100.185 117.228C100.185 117.792 100.029 118.296 99.7165 118.74C99.4045 119.184 98.9605 119.532 98.3845 119.784C97.8205 120.036 97.1545 120.162 96.3865 120.162ZM104.796 111.756V117.246C104.796 117.618 104.88 117.888 105.048 118.056C105.228 118.212 105.528 118.29 105.948 118.29H107.208V120H105.588C104.664 120 103.956 119.784 103.464 119.352C102.972 118.92 102.726 118.218 102.726 117.246V111.756H101.556V110.082H102.726V107.616H104.796V110.082H107.208V111.756H104.796Z" fill="#ABB6C7"/>
</svg>
