<svg width="122" height="136" viewBox="0 0 122 136" fill="none" xmlns="http://www.w3.org/2000/svg">
<path d="M64.4473 67.9688C63.7686 67.9688 63.1216 67.6928 62.6503 67.207L37.7773 41.4868C31.2296 34.7118 31.3223 23.7818 37.9823 17.119C44.0591 11.0423 53.8221 10.349 60.6923 15.5053L64.4473 18.3203L68.1973 15.5053C75.0773 10.3515 84.8378 11.0448 90.9098 17.119C97.5723 23.7815 97.6651 34.7118 91.1148 41.4868L66.2443 67.207C65.7731 67.6928 65.1261 67.9688 64.4473 67.9688ZM50.2848 17.0483C47.0866 17.0483 43.9031 18.269 41.5178 20.6543C36.7741 25.4003 36.7083 33.186 41.3713 38.0103L64.4476 61.8725L87.5213 38.0103C92.1868 33.186 92.1208 25.4005 87.3748 20.6543C83.0486 16.3258 76.0931 15.8373 71.1981 19.5043L65.9491 23.4448C65.0603 24.1138 63.8373 24.1138 62.9486 23.4448L57.6946 19.5043C55.4973 17.8563 52.8851 17.0483 50.2848 17.0483Z" fill="#2AA7FF"/>
<path d="M63.5 52.5001C63.4415 52.5001 63.3827 52.4976 63.3217 52.4928C62.3135 52.4221 61.4492 51.7506 61.1292 50.7911L55.7875 34.7656L53.3217 40.9276C52.941 41.8773 52.023 42.4998 51 42.4998H28.5C27.1182 42.4998 26 41.3816 26 39.9998C26 38.6181 27.1182 37.4998 28.5 37.4998H49.308L53.678 26.5721C54.0685 25.5981 55.0525 24.9926 56.073 24.9998C57.1227 25.0316 58.0407 25.7151 58.3702 26.7088L63.9635 43.4838L66.2632 38.8818C66.688 38.0346 67.5522 37.5001 68.4995 37.5001H75.9995C77.3812 37.5001 78.4995 38.6183 78.4995 40.0001C78.4995 41.3818 77.3812 42.5001 75.9995 42.5001H70.045L65.736 51.1183C65.3112 51.9703 64.4422 52.5001 63.5 52.5001Z" fill="#2AA7FF"/>
<path d="M11.4892 113.718C11.4892 112.494 11.7712 111.396 12.3352 110.424C12.9112 109.452 13.6852 108.696 14.6572 108.156C15.6412 107.604 16.7152 107.328 17.8792 107.328C19.2112 107.328 20.3932 107.658 21.4252 108.318C22.4692 108.966 23.2252 109.89 23.6932 111.09H21.2272C20.9032 110.43 20.4532 109.938 19.8772 109.614C19.3012 109.29 18.6352 109.128 17.8792 109.128C17.0512 109.128 16.3132 109.314 15.6652 109.686C15.0172 110.058 14.5072 110.592 14.1352 111.288C13.7752 111.984 13.5952 112.794 13.5952 113.718C13.5952 114.642 13.7752 115.452 14.1352 116.148C14.5072 116.844 15.0172 117.384 15.6652 117.768C16.3132 118.14 17.0512 118.326 17.8792 118.326C18.6352 118.326 19.3012 118.164 19.8772 117.84C20.4532 117.516 20.9032 117.024 21.2272 116.364H23.6932C23.2252 117.564 22.4692 118.488 21.4252 119.136C20.3932 119.784 19.2112 120.108 17.8792 120.108C16.7032 120.108 15.6292 119.838 14.6572 119.298C13.6852 118.746 12.9112 117.984 12.3352 117.012C11.7712 116.04 11.4892 114.942 11.4892 113.718ZM25.4111 114.996C25.4111 114 25.6151 113.118 26.0231 112.35C26.4431 111.582 27.0071 110.988 27.7151 110.568C28.4351 110.136 29.2271 109.92 30.0911 109.92C30.8711 109.92 31.5491 110.076 32.1251 110.388C32.7131 110.688 33.1811 111.066 33.5291 111.522V110.082H35.5991V120H33.5291V118.524C33.1811 118.992 32.7071 119.382 32.1071 119.694C31.5071 120.006 30.8231 120.162 30.0551 120.162C29.2031 120.162 28.4231 119.946 27.7151 119.514C27.0071 119.07 26.4431 118.458 26.0231 117.678C25.6151 116.886 25.4111 115.992 25.4111 114.996ZM33.5291 115.032C33.5291 114.348 33.3851 113.754 33.0971 113.25C32.8211 112.746 32.4551 112.362 31.9991 112.098C31.5431 111.834 31.0511 111.702 30.5231 111.702C29.9951 111.702 29.5031 111.834 29.0471 112.098C28.5911 112.35 28.2191 112.728 27.9311 113.232C27.6551 113.724 27.5171 114.312 27.5171 114.996C27.5171 115.68 27.6551 116.28 27.9311 116.796C28.2191 117.312 28.5911 117.708 29.0471 117.984C29.5151 118.248 30.0071 118.38 30.5231 118.38C31.0511 118.38 31.5431 118.248 31.9991 117.984C32.4551 117.72 32.8211 117.336 33.0971 116.832C33.3851 116.316 33.5291 115.716 33.5291 115.032ZM40.3463 111.522C40.6463 111.018 41.0423 110.628 41.5343 110.352C42.0383 110.064 42.6323 109.92 43.3163 109.92V112.044H42.7943C41.9903 112.044 41.3783 112.248 40.9583 112.656C40.5503 113.064 40.3463 113.772 40.3463 114.78V120H38.2943V110.082H40.3463V111.522ZM44.5185 114.996C44.5185 114 44.7225 113.118 45.1305 112.35C45.5505 111.582 46.1145 110.988 46.8225 110.568C47.5425 110.136 48.3405 109.92 49.2165 109.92C49.8645 109.92 50.5005 110.064 51.1245 110.352C51.7605 110.628 52.2645 111 52.6365 111.468V106.68H54.7065V120H52.6365V118.506C52.3005 118.986 51.8325 119.382 51.2325 119.694C50.6445 120.006 49.9665 120.162 49.1985 120.162C48.3345 120.162 47.5425 119.946 46.8225 119.514C46.1145 119.07 45.5505 118.458 45.1305 117.678C44.7225 116.886 44.5185 115.992 44.5185 114.996ZM52.6365 115.032C52.6365 114.348 52.4925 113.754 52.2045 113.25C51.9285 112.746 51.5625 112.362 51.1065 112.098C50.6505 111.834 50.1585 111.702 49.6305 111.702C49.1025 111.702 48.6105 111.834 48.1545 112.098C47.6985 112.35 47.3265 112.728 47.0385 113.232C46.7625 113.724 46.6245 114.312 46.6245 114.996C46.6245 115.68 46.7625 116.28 47.0385 116.796C47.3265 117.312 47.6985 117.708 48.1545 117.984C48.6225 118.248 49.1145 118.38 49.6305 118.38C50.1585 118.38 50.6505 118.248 51.1065 117.984C51.5625 117.72 51.9285 117.336 52.2045 116.832C52.4925 116.316 52.6365 115.716 52.6365 115.032ZM58.4458 108.768C58.0738 108.768 57.7618 108.642 57.5098 108.39C57.2578 108.138 57.1318 107.826 57.1318 107.454C57.1318 107.082 57.2578 106.77 57.5098 106.518C57.7618 106.266 58.0738 106.14 58.4458 106.14C58.8058 106.14 59.1118 106.266 59.3638 106.518C59.6158 106.77 59.7418 107.082 59.7418 107.454C59.7418 107.826 59.6158 108.138 59.3638 108.39C59.1118 108.642 58.8058 108.768 58.4458 108.768ZM59.4538 110.082V120H57.4018V110.082H59.4538ZM66.4499 120.162C65.5139 120.162 64.6679 119.952 63.9119 119.532C63.1559 119.1 62.5619 118.5 62.1299 117.732C61.6979 116.952 61.4819 116.052 61.4819 115.032C61.4819 114.024 61.7039 113.13 62.1479 112.35C62.5919 111.57 63.1979 110.97 63.9659 110.55C64.7339 110.13 65.5919 109.92 66.5399 109.92C67.4879 109.92 68.3459 110.13 69.1139 110.55C69.8819 110.97 70.4879 111.57 70.9319 112.35C71.3759 113.13 71.5979 114.024 71.5979 115.032C71.5979 116.04 71.3699 116.934 70.9139 117.714C70.4579 118.494 69.8339 119.1 69.0419 119.532C68.2619 119.952 67.3979 120.162 66.4499 120.162ZM66.4499 118.38C66.9779 118.38 67.4699 118.254 67.9259 118.002C68.3939 117.75 68.7719 117.372 69.0599 116.868C69.3479 116.364 69.4919 115.752 69.4919 115.032C69.4919 114.312 69.3539 113.706 69.0779 113.214C68.8019 112.71 68.4359 112.332 67.9799 112.08C67.5239 111.828 67.0319 111.702 66.5039 111.702C65.9759 111.702 65.4839 111.828 65.0279 112.08C64.5839 112.332 64.2299 112.71 63.9659 113.214C63.7019 113.706 63.5699 114.312 63.5699 115.032C63.5699 116.1 63.8399 116.928 64.3799 117.516C64.9319 118.092 65.6219 118.38 66.4499 118.38ZM75.6784 106.68V120H73.6264V106.68H75.6784ZM82.6745 120.162C81.7385 120.162 80.8925 119.952 80.1365 119.532C79.3805 119.1 78.7865 118.5 78.3545 117.732C77.9225 116.952 77.7065 116.052 77.7065 115.032C77.7065 114.024 77.9285 113.13 78.3725 112.35C78.8165 111.57 79.4225 110.97 80.1905 110.55C80.9585 110.13 81.8165 109.92 82.7645 109.92C83.7125 109.92 84.5705 110.13 85.3385 110.55C86.1065 110.97 86.7125 111.57 87.1565 112.35C87.6005 113.13 87.8225 114.024 87.8225 115.032C87.8225 116.04 87.5945 116.934 87.1385 117.714C86.6825 118.494 86.0585 119.1 85.2665 119.532C84.4865 119.952 83.6225 120.162 82.6745 120.162ZM82.6745 118.38C83.2025 118.38 83.6945 118.254 84.1505 118.002C84.6185 117.75 84.9965 117.372 85.2845 116.868C85.5725 116.364 85.7165 115.752 85.7165 115.032C85.7165 114.312 85.5785 113.706 85.3025 113.214C85.0265 112.71 84.6605 112.332 84.2045 112.08C83.7485 111.828 83.2565 111.702 82.7285 111.702C82.2005 111.702 81.7085 111.828 81.2525 112.08C80.8085 112.332 80.4545 112.71 80.1905 113.214C79.9265 113.706 79.7945 114.312 79.7945 115.032C79.7945 116.1 80.0645 116.928 80.6045 117.516C81.1565 118.092 81.8465 118.38 82.6745 118.38ZM93.847 109.92C94.615 109.92 95.293 110.076 95.881 110.388C96.481 110.688 96.949 111.066 97.285 111.522V110.082H99.355V120.162C99.355 121.074 99.163 121.884 98.779 122.592C98.395 123.312 97.837 123.876 97.105 124.284C96.385 124.692 95.521 124.896 94.513 124.896C93.169 124.896 92.053 124.578 91.165 123.942C90.277 123.318 89.773 122.466 89.653 121.386H91.687C91.843 121.902 92.173 122.316 92.677 122.628C93.193 122.952 93.805 123.114 94.513 123.114C95.341 123.114 96.007 122.862 96.511 122.358C97.027 121.854 97.285 121.122 97.285 120.162V118.506C96.937 118.974 96.463 119.37 95.863 119.694C95.275 120.006 94.603 120.162 93.847 120.162C92.983 120.162 92.191 119.946 91.471 119.514C90.763 119.07 90.199 118.458 89.779 117.678C89.371 116.886 89.167 115.992 89.167 114.996C89.167 114 89.371 113.118 89.779 112.35C90.199 111.582 90.763 110.988 91.471 110.568C92.191 110.136 92.983 109.92 93.847 109.92ZM97.285 115.032C97.285 114.348 97.141 113.754 96.853 113.25C96.577 112.746 96.211 112.362 95.755 112.098C95.299 111.834 94.807 111.702 94.279 111.702C93.751 111.702 93.259 111.834 92.803 112.098C92.347 112.35 91.975 112.728 91.687 113.232C91.411 113.724 91.273 114.312 91.273 114.996C91.273 115.68 91.411 116.28 91.687 116.796C91.975 117.312 92.347 117.708 92.803 117.984C93.271 118.248 93.763 118.38 94.279 118.38C94.807 118.38 95.299 118.248 95.755 117.984C96.211 117.72 96.577 117.336 96.853 116.832C97.141 116.316 97.285 115.716 97.285 115.032ZM110.978 110.082L104.894 124.662H102.77L104.786 119.838L100.88 110.082H103.166L105.956 117.642L108.854 110.082H110.978Z" fill="#ABB6C7"/>
</svg>
