<svg width="122" height="136" viewBox="0 0 122 136" fill="none" xmlns="http://www.w3.org/2000/svg">
<path d="M66 50H76V72.5H81V47.5C81 46.1183 79.8818 45 78.5 45H63.5C62.1183 45 61 46.1183 61 47.5V72.5H66V50Z" fill="#2AA7FF"/>
<path d="M88.5 25H76V30H86V70H36V30H46V25H33.5C32.1183 25 31 26.1183 31 27.5V72.5C31 73.8817 32.1183 75 33.5 75H88.5C89.8817 75 91 73.8817 91 72.5V27.5C91 26.1183 89.8817 25 88.5 25Z" fill="#2AA7FF"/>
<path d="M46 25H31V20H46V15H28.5C27.1183 15 26 16.1183 26 17.5V27.5C26 28.8818 27.1183 30 28.5 30H46V25Z" fill="#2AA7FF"/>
<path d="M93.5 15H76V20H91V25H76V30H93.5C94.8818 30 96 28.8818 96 27.5V17.5C96 16.1183 94.8818 15 93.5 15Z" fill="#2AA7FF"/>
<path d="M76 40H46C44.6183 40 43.5 38.8817 43.5 37.5V7.5C43.5 6.11825 44.6183 5 46 5H76C77.3817 5 78.5 6.11825 78.5 7.5V37.5C78.5 38.8817 77.3817 40 76 40ZM48.5 35H73.5V10H48.5V35Z" fill="#2AA7FF"/>
<path d="M66 20H63.5V17.5C63.5 16.1183 62.3818 15 61 15C59.6182 15 58.5 16.1183 58.5 17.5V20H56C54.6183 20 53.5 21.1182 53.5 22.5C53.5 23.8818 54.6183 25 56 25H58.5V27.5C58.5 28.8818 59.6182 30 61 30C62.3818 30 63.5 28.8818 63.5 27.5V25H66C67.3818 25 68.5 23.8818 68.5 22.5C68.5 21.1182 67.3818 20 66 20Z" fill="#2AA7FF"/>
<path d="M53.5 60H43.5C42.1183 60 41 58.8818 41 57.5V52.5C41 48.3643 44.3643 45 48.5 45C52.6357 45 56 48.3643 56 52.5V57.5C56 58.8818 54.8818 60 53.5 60ZM46 55H51V52.5C51 51.1205 49.8795 50 48.5 50C47.1205 50 46 51.1205 46 52.5V55Z" fill="#2AA7FF"/>
<path d="M26.0854 107.49C27.4174 107.49 28.5814 107.748 29.5774 108.264C30.5854 108.768 31.3594 109.5 31.8994 110.46C32.4514 111.408 32.7274 112.518 32.7274 113.79C32.7274 115.062 32.4514 116.166 31.8994 117.102C31.3594 118.038 30.5854 118.758 29.5774 119.262C28.5814 119.754 27.4174 120 26.0854 120H21.9994V107.49H26.0854ZM26.0854 118.326C27.5494 118.326 28.6714 117.93 29.4514 117.138C30.2314 116.346 30.6214 115.23 30.6214 113.79C30.6214 112.338 30.2314 111.204 29.4514 110.388C28.6714 109.572 27.5494 109.164 26.0854 109.164H24.0514V118.326H26.0854ZM43.8511 114.798C43.8511 115.17 43.8271 115.506 43.7791 115.806H36.2011C36.2611 116.598 36.5551 117.234 37.0831 117.714C37.6111 118.194 38.2591 118.434 39.0271 118.434C40.1311 118.434 40.9111 117.972 41.3671 117.048H43.5811C43.2811 117.96 42.7351 118.71 41.9431 119.298C41.1631 119.874 40.1911 120.162 39.0271 120.162C38.0791 120.162 37.2271 119.952 36.4711 119.532C35.7271 119.1 35.1391 118.5 34.7071 117.732C34.2871 116.952 34.0771 116.052 34.0771 115.032C34.0771 114.012 34.2811 113.118 34.6891 112.35C35.1091 111.57 35.6911 110.97 36.4351 110.55C37.1911 110.13 38.0551 109.92 39.0271 109.92C39.9631 109.92 40.7971 110.124 41.5291 110.532C42.2611 110.94 42.8311 111.516 43.2391 112.26C43.6471 112.992 43.8511 113.838 43.8511 114.798ZM41.7091 114.15C41.6971 113.394 41.4271 112.788 40.8991 112.332C40.3711 111.876 39.7171 111.648 38.9371 111.648C38.2291 111.648 37.6231 111.876 37.1191 112.332C36.6151 112.776 36.3151 113.382 36.2191 114.15H41.7091ZM50.8745 109.92C51.6545 109.92 52.3505 110.082 52.9625 110.406C53.5865 110.73 54.0725 111.21 54.4205 111.846C54.7685 112.482 54.9425 113.25 54.9425 114.15V120H52.9085V114.456C52.9085 113.568 52.6865 112.89 52.2425 112.422C51.7985 111.942 51.1925 111.702 50.4245 111.702C49.6565 111.702 49.0445 111.942 48.5885 112.422C48.1445 112.89 47.9225 113.568 47.9225 114.456V120H45.8705V110.082H47.9225V111.216C48.2585 110.808 48.6845 110.49 49.2005 110.262C49.7285 110.034 50.2865 109.92 50.8745 109.92ZM59.954 111.756V117.246C59.954 117.618 60.038 117.888 60.206 118.056C60.386 118.212 60.686 118.29 61.106 118.29H62.366V120H60.746C59.822 120 59.114 119.784 58.622 119.352C58.13 118.92 57.884 118.218 57.884 117.246V111.756H56.714V110.082H57.884V107.616H59.954V110.082H62.366V111.756H59.954ZM65.3012 108.768C64.9292 108.768 64.6172 108.642 64.3652 108.39C64.1132 108.138 63.9872 107.826 63.9872 107.454C63.9872 107.082 64.1132 106.77 64.3652 106.518C64.6172 106.266 64.9292 106.14 65.3012 106.14C65.6612 106.14 65.9672 106.266 66.2192 106.518C66.4712 106.77 66.5972 107.082 66.5972 107.454C66.5972 107.826 66.4712 108.138 66.2192 108.39C65.9672 108.642 65.6612 108.768 65.3012 108.768ZM66.3092 110.082V120H64.2572V110.082H66.3092ZM72.6033 120.162C71.8233 120.162 71.1213 120.024 70.4973 119.748C69.8853 119.46 69.3993 119.076 69.0393 118.596C68.6793 118.104 68.4873 117.558 68.4633 116.958H70.5873C70.6233 117.378 70.8213 117.732 71.1813 118.02C71.5533 118.296 72.0153 118.434 72.5673 118.434C73.1433 118.434 73.5873 118.326 73.8993 118.11C74.2233 117.882 74.3853 117.594 74.3853 117.246C74.3853 116.874 74.2053 116.598 73.8453 116.418C73.4973 116.238 72.9393 116.04 72.1713 115.824C71.4273 115.62 70.8213 115.422 70.3533 115.23C69.8853 115.038 69.4773 114.744 69.1293 114.348C68.7933 113.952 68.6253 113.43 68.6253 112.782C68.6253 112.254 68.7813 111.774 69.0933 111.342C69.4053 110.898 69.8493 110.55 70.4253 110.298C71.0133 110.046 71.6853 109.92 72.4413 109.92C73.5693 109.92 74.4753 110.208 75.1593 110.784C75.8553 111.348 76.2273 112.122 76.2753 113.106H74.2233C74.1873 112.662 74.0073 112.308 73.6833 112.044C73.3593 111.78 72.9213 111.648 72.3693 111.648C71.8293 111.648 71.4153 111.75 71.1273 111.954C70.8393 112.158 70.6953 112.428 70.6953 112.764C70.6953 113.028 70.7913 113.25 70.9833 113.43C71.1753 113.61 71.4093 113.754 71.6853 113.862C71.9613 113.958 72.3693 114.084 72.9093 114.24C73.6293 114.432 74.2173 114.63 74.6733 114.834C75.1413 115.026 75.5433 115.314 75.8793 115.698C76.2153 116.082 76.3893 116.592 76.4013 117.228C76.4013 117.792 76.2453 118.296 75.9333 118.74C75.6213 119.184 75.1773 119.532 74.6013 119.784C74.0373 120.036 73.3713 120.162 72.6033 120.162ZM81.0126 111.756V117.246C81.0126 117.618 81.0966 117.888 81.2646 118.056C81.4446 118.212 81.7446 118.29 82.1646 118.29H83.4246V120H81.8046C80.8806 120 80.1726 119.784 79.6806 119.352C79.1886 118.92 78.9426 118.218 78.9426 117.246V111.756H77.7726V110.082H78.9426V107.616H81.0126V110.082H83.4246V111.756H81.0126ZM87.3678 111.522C87.6678 111.018 88.0638 110.628 88.5558 110.352C89.0598 110.064 89.6538 109.92 90.3378 109.92V112.044H89.8158C89.0118 112.044 88.3998 112.248 87.9798 112.656C87.5718 113.064 87.3678 113.772 87.3678 114.78V120H85.3158V110.082H87.3678V111.522ZM101.152 110.082L95.068 124.662H92.944L94.96 119.838L91.054 110.082H93.34L96.13 117.642L99.028 110.082H101.152Z" fill="#ABB6C7"/>
</svg>
