<svg width="122" height="136" viewBox="0 0 122 136" fill="none" xmlns="http://www.w3.org/2000/svg">
<path d="M66 50H76V72.5H81V47.5C81 46.1183 79.8818 45 78.5 45H63.5C62.1183 45 61 46.1183 61 47.5V72.5H66V50Z" fill="#2AA7FF"/>
<path d="M88.5 25H76V30H86V70H36V30H46V25H33.5C32.1183 25 31 26.1183 31 27.5V72.5C31 73.8817 32.1183 75 33.5 75H88.5C89.8817 75 91 73.8817 91 72.5V27.5C91 26.1183 89.8817 25 88.5 25Z" fill="#2AA7FF"/>
<path d="M46 25H31V20H46V15H28.5C27.1183 15 26 16.1183 26 17.5V27.5C26 28.8818 27.1183 30 28.5 30H46V25Z" fill="#2AA7FF"/>
<path d="M93.5 15H76V20H91V25H76V30H93.5C94.8818 30 96 28.8818 96 27.5V17.5C96 16.1183 94.8818 15 93.5 15Z" fill="#2AA7FF"/>
<path d="M76 40H46C44.6183 40 43.5 38.8817 43.5 37.5V7.5C43.5 6.11825 44.6183 5 46 5H76C77.3817 5 78.5 6.11825 78.5 7.5V37.5C78.5 38.8817 77.3817 40 76 40ZM48.5 35H73.5V10H48.5V35Z" fill="#2AA7FF"/>
<path d="M66 20H63.5V17.5C63.5 16.1183 62.3818 15 61 15C59.6182 15 58.5 16.1183 58.5 17.5V20H56C54.6183 20 53.5 21.1182 53.5 22.5C53.5 23.8818 54.6183 25 56 25H58.5V27.5C58.5 28.8818 59.6182 30 61 30C62.3818 30 63.5 28.8818 63.5 27.5V25H66C67.3818 25 68.5 23.8818 68.5 22.5C68.5 21.1182 67.3818 20 66 20Z" fill="#2AA7FF"/>
<path d="M53.5 60H43.5C42.1183 60 41 58.8818 41 57.5V52.5C41 48.3643 44.3643 45 48.5 45C52.6357 45 56 48.3643 56 52.5V57.5C56 58.8818 54.8818 60 53.5 60ZM46 55H51V52.5C51 51.1205 49.8795 50 48.5 50C47.1205 50 46 51.1205 46 52.5V55Z" fill="#2AA7FF"/>
<path d="M15.1305 118.344H19.3605V120H13.0785V107.49H15.1305V118.344ZM20.3926 114.996C20.3926 114 20.5966 113.118 21.0046 112.35C21.4246 111.582 21.9886 110.988 22.6966 110.568C23.4166 110.136 24.2086 109.92 25.0726 109.92C25.8526 109.92 26.5306 110.076 27.1066 110.388C27.6946 110.688 28.1626 111.066 28.5106 111.522V110.082H30.5806V120H28.5106V118.524C28.1626 118.992 27.6886 119.382 27.0886 119.694C26.4886 120.006 25.8046 120.162 25.0366 120.162C24.1846 120.162 23.4046 119.946 22.6966 119.514C21.9886 119.07 21.4246 118.458 21.0046 117.678C20.5966 116.886 20.3926 115.992 20.3926 114.996ZM28.5106 115.032C28.5106 114.348 28.3666 113.754 28.0786 113.25C27.8026 112.746 27.4366 112.362 26.9806 112.098C26.5246 111.834 26.0326 111.702 25.5046 111.702C24.9766 111.702 24.4846 111.834 24.0286 112.098C23.5726 112.35 23.2006 112.728 22.9126 113.232C22.6366 113.724 22.4986 114.312 22.4986 114.996C22.4986 115.68 22.6366 116.28 22.9126 116.796C23.2006 117.312 23.5726 117.708 24.0286 117.984C24.4966 118.248 24.9886 118.38 25.5046 118.38C26.0326 118.38 26.5246 118.248 26.9806 117.984C27.4366 117.72 27.8026 117.336 28.0786 116.832C28.3666 116.316 28.5106 115.716 28.5106 115.032ZM35.3278 111.558C35.6758 111.078 36.1498 110.688 36.7498 110.388C37.3618 110.076 38.0398 109.92 38.7838 109.92C39.6598 109.92 40.4518 110.13 41.1598 110.55C41.8678 110.97 42.4258 111.57 42.8338 112.35C43.2418 113.118 43.4458 114 43.4458 114.996C43.4458 115.992 43.2418 116.886 42.8338 117.678C42.4258 118.458 41.8618 119.07 41.1418 119.514C40.4338 119.946 39.6478 120.162 38.7838 120.162C38.0158 120.162 37.3318 120.012 36.7318 119.712C36.1438 119.412 35.6758 119.028 35.3278 118.56V120H33.2758V106.68H35.3278V111.558ZM41.3578 114.996C41.3578 114.312 41.2138 113.724 40.9258 113.232C40.6498 112.728 40.2778 112.35 39.8098 112.098C39.3538 111.834 38.8618 111.702 38.3338 111.702C37.8178 111.702 37.3258 111.834 36.8578 112.098C36.4018 112.362 36.0298 112.746 35.7418 113.25C35.4658 113.754 35.3278 114.348 35.3278 115.032C35.3278 115.716 35.4658 116.316 35.7418 116.832C36.0298 117.336 36.4018 117.72 36.8578 117.984C37.3258 118.248 37.8178 118.38 38.3338 118.38C38.8618 118.38 39.3538 118.248 39.8098 117.984C40.2778 117.708 40.6498 117.312 40.9258 116.796C41.2138 116.28 41.3578 115.68 41.3578 114.996ZM49.777 120.162C48.841 120.162 47.995 119.952 47.239 119.532C46.483 119.1 45.889 118.5 45.457 117.732C45.025 116.952 44.809 116.052 44.809 115.032C44.809 114.024 45.031 113.13 45.475 112.35C45.919 111.57 46.525 110.97 47.293 110.55C48.061 110.13 48.919 109.92 49.867 109.92C50.815 109.92 51.673 110.13 52.441 110.55C53.209 110.97 53.815 111.57 54.259 112.35C54.703 113.13 54.925 114.024 54.925 115.032C54.925 116.04 54.697 116.934 54.241 117.714C53.785 118.494 53.161 119.1 52.369 119.532C51.589 119.952 50.725 120.162 49.777 120.162ZM49.777 118.38C50.305 118.38 50.797 118.254 51.253 118.002C51.721 117.75 52.099 117.372 52.387 116.868C52.675 116.364 52.819 115.752 52.819 115.032C52.819 114.312 52.681 113.706 52.405 113.214C52.129 112.71 51.763 112.332 51.307 112.08C50.851 111.828 50.359 111.702 49.831 111.702C49.303 111.702 48.811 111.828 48.355 112.08C47.911 112.332 47.557 112.71 47.293 113.214C47.029 113.706 46.897 114.312 46.897 115.032C46.897 116.1 47.167 116.928 47.707 117.516C48.259 118.092 48.949 118.38 49.777 118.38ZM59.0055 111.522C59.3055 111.018 59.7015 110.628 60.1935 110.352C60.6975 110.064 61.2915 109.92 61.9755 109.92V112.044H61.4535C60.6495 112.044 60.0375 112.248 59.6175 112.656C59.2095 113.064 59.0055 113.772 59.0055 114.78V120H56.9535V110.082H59.0055V111.522ZM63.1777 114.996C63.1777 114 63.3817 113.118 63.7897 112.35C64.2097 111.582 64.7737 110.988 65.4817 110.568C66.2017 110.136 66.9937 109.92 67.8577 109.92C68.6377 109.92 69.3157 110.076 69.8917 110.388C70.4797 110.688 70.9477 111.066 71.2957 111.522V110.082H73.3657V120H71.2957V118.524C70.9477 118.992 70.4737 119.382 69.8737 119.694C69.2737 120.006 68.5897 120.162 67.8217 120.162C66.9697 120.162 66.1897 119.946 65.4817 119.514C64.7737 119.07 64.2097 118.458 63.7897 117.678C63.3817 116.886 63.1777 115.992 63.1777 114.996ZM71.2957 115.032C71.2957 114.348 71.1517 113.754 70.8637 113.25C70.5877 112.746 70.2217 112.362 69.7657 112.098C69.3097 111.834 68.8177 111.702 68.2897 111.702C67.7617 111.702 67.2697 111.834 66.8137 112.098C66.3577 112.35 65.9857 112.728 65.6977 113.232C65.4217 113.724 65.2837 114.312 65.2837 114.996C65.2837 115.68 65.4217 116.28 65.6977 116.796C65.9857 117.312 66.3577 117.708 66.8137 117.984C67.2817 118.248 67.7737 118.38 68.2897 118.38C68.8177 118.38 69.3097 118.248 69.7657 117.984C70.2217 117.72 70.5877 117.336 70.8637 116.832C71.1517 116.316 71.2957 115.716 71.2957 115.032ZM78.4549 111.756V117.246C78.4549 117.618 78.5389 117.888 78.7069 118.056C78.8869 118.212 79.1869 118.29 79.6069 118.29H80.8669V120H79.2469C78.3229 120 77.6149 119.784 77.1229 119.352C76.6309 118.92 76.3849 118.218 76.3849 117.246V111.756H75.2149V110.082H76.3849V107.616H78.4549V110.082H80.8669V111.756H78.4549ZM87.0602 120.162C86.1242 120.162 85.2782 119.952 84.5222 119.532C83.7662 119.1 83.1722 118.5 82.7402 117.732C82.3082 116.952 82.0922 116.052 82.0922 115.032C82.0922 114.024 82.3142 113.13 82.7582 112.35C83.2022 111.57 83.8082 110.97 84.5762 110.55C85.3442 110.13 86.2022 109.92 87.1502 109.92C88.0982 109.92 88.9562 110.13 89.7242 110.55C90.4922 110.97 91.0982 111.57 91.5422 112.35C91.9862 113.13 92.2082 114.024 92.2082 115.032C92.2082 116.04 91.9802 116.934 91.5242 117.714C91.0682 118.494 90.4442 119.1 89.6522 119.532C88.8722 119.952 88.0082 120.162 87.0602 120.162ZM87.0602 118.38C87.5882 118.38 88.0802 118.254 88.5362 118.002C89.0042 117.75 89.3822 117.372 89.6702 116.868C89.9582 116.364 90.1022 115.752 90.1022 115.032C90.1022 114.312 89.9642 113.706 89.6882 113.214C89.4122 112.71 89.0462 112.332 88.5902 112.08C88.1342 111.828 87.6422 111.702 87.1142 111.702C86.5862 111.702 86.0942 111.828 85.6382 112.08C85.1942 112.332 84.8402 112.71 84.5762 113.214C84.3122 113.706 84.1802 114.312 84.1802 115.032C84.1802 116.1 84.4502 116.928 84.9902 117.516C85.5422 118.092 86.2322 118.38 87.0602 118.38ZM96.2887 111.522C96.5887 111.018 96.9847 110.628 97.4767 110.352C97.9807 110.064 98.5747 109.92 99.2587 109.92V112.044H98.7367C97.9327 112.044 97.3207 112.248 96.9007 112.656C96.4927 113.064 96.2887 113.772 96.2887 114.78V120H94.2367V110.082H96.2887V111.522ZM110.073 110.082L103.989 124.662H101.865L103.881 119.838L99.9749 110.082H102.261L105.051 117.642L107.949 110.082H110.073Z" fill="#ABB6C7"/>
</svg>
