<svg width="138" height="127" viewBox="0 0 138 127" fill="none" xmlns="http://www.w3.org/2000/svg">
<path d="M43.6875 72.5C43.6875 73.8818 44.8197 75 46.2188 75C47.6178 75 48.75 73.8818 48.75 72.5V67.5H43.6875V72.5Z" fill="#2AA7FF"/>
<path d="M89.25 72.5C89.25 73.8818 90.3822 75 91.7812 75C93.1803 75 94.3125 73.8818 94.3125 72.5V67.5H89.25V72.5Z" fill="#2AA7FF"/>
<path d="M101.906 45H36.0938V50H101.906V45Z" fill="#2AA7FF"/>
<path d="M96.8438 70H41.1562C36.9688 70 33.5625 66.6357 33.5625 62.5V12.5C33.5625 8.36425 36.9688 5 41.1562 5H96.8438C101.031 5 104.438 8.36425 104.438 12.5V62.5C104.438 66.6357 101.031 70 96.8438 70ZM41.1562 10C39.7595 10 38.625 11.1205 38.625 12.5V62.5C38.625 63.8795 39.7595 65 41.1562 65H96.8438C98.2405 65 99.375 63.8795 99.375 62.5V12.5C99.375 11.1205 98.2405 10 96.8438 10H41.1562Z" fill="#2AA7FF"/>
<path d="M91.7812 60H81.6562C80.2572 60 79.125 58.8817 79.125 57.5C79.125 56.1183 80.2572 55 81.6562 55H91.7812C93.1803 55 94.3125 56.1183 94.3125 57.5C94.3125 58.8817 93.1803 60 91.7812 60Z" fill="#2AA7FF"/>
<path d="M46.2188 60C47.6167 60 48.75 58.8807 48.75 57.5C48.75 56.1193 47.6167 55 46.2188 55C44.8208 55 43.6875 56.1193 43.6875 57.5C43.6875 58.8807 44.8208 60 46.2188 60Z" fill="#2AA7FF"/>
<path d="M56.3438 60C57.7417 60 58.875 58.8807 58.875 57.5C58.875 56.1193 57.7417 55 56.3438 55C54.9458 55 53.8125 56.1193 53.8125 57.5C53.8125 58.8807 54.9458 60 56.3438 60Z" fill="#2AA7FF"/>
<path d="M81.6562 39.9999C81.5649 39.9999 81.4732 39.9949 81.3793 39.9851C80.3263 39.8704 79.4586 39.1209 79.2014 38.1051L76.0374 25.6076L73.8818 30.9274C73.5654 31.7086 72.8733 32.2799 72.0403 32.4484C71.1974 32.6169 70.3421 32.3604 69.7414 31.7671L67.3932 29.4479L63.757 38.4274C63.3467 39.4356 62.3208 40.0436 61.2356 39.9949C60.1406 39.9216 59.216 39.1574 58.9517 38.1051L55.5479 24.6626L53.5457 28.6176C53.1156 29.4649 52.2406 29.9994 51.2815 29.9994H46.219C44.82 29.9994 43.6877 28.8811 43.6877 27.4994C43.6877 26.1176 44.82 24.9994 46.219 24.9994H49.7167L54.0795 16.3811C54.5541 15.4461 55.5454 14.8991 56.6207 15.0139C57.6737 15.1286 58.5414 15.8781 58.7985 16.8939L61.9626 29.3914L64.1182 24.0716C64.4346 23.2904 65.1267 22.7191 65.9597 22.5506C66.8051 22.3796 67.6579 22.6386 68.2586 23.2319L70.6068 25.5511L74.243 16.5716C74.6533 15.5634 75.6817 14.9626 76.7643 15.0041C77.8594 15.0774 78.784 15.8416 79.0483 16.8939L82.4521 30.3364L84.4543 26.3814C84.8843 25.5341 85.7594 24.9996 86.7185 24.9996H91.781C93.18 24.9996 94.3122 26.1179 94.3122 27.4996C94.3122 28.8814 93.18 29.9996 91.781 29.9996H88.2833L83.9204 38.6179C83.4879 39.4699 82.6077 39.9999 81.6562 39.9999Z" fill="#2AA7FF"/>
<path d="M14.6637 107.49V120H12.6117V111.432L8.7957 120H7.3737L3.5397 111.432V120H1.4877V107.49H3.7017L8.0937 117.3L12.4677 107.49H14.6637ZM23.8587 120L20.9787 114.996H19.4127V120H17.3607V107.49H21.6807C22.6407 107.49 23.4507 107.658 24.1107 107.994C24.7827 108.33 25.2807 108.78 25.6047 109.344C25.9407 109.908 26.1087 110.538 26.1087 111.234C26.1087 112.05 25.8687 112.794 25.3887 113.466C24.9207 114.126 24.1947 114.576 23.2107 114.816L26.3067 120H23.8587ZM19.4127 113.358H21.6807C22.4487 113.358 23.0247 113.166 23.4087 112.782C23.8047 112.398 24.0027 111.882 24.0027 111.234C24.0027 110.586 23.8107 110.082 23.4267 109.722C23.0427 109.35 22.4607 109.164 21.6807 109.164H19.4127V113.358ZM30.7858 107.49V120H28.7338V107.49H30.7858ZM44.6537 120L41.7737 114.996H40.2077V120H38.1557V107.49H42.4757C43.4357 107.49 44.2457 107.658 44.9057 107.994C45.5777 108.33 46.0757 108.78 46.3997 109.344C46.7357 109.908 46.9037 110.538 46.9037 111.234C46.9037 112.05 46.6637 112.794 46.1837 113.466C45.7157 114.126 44.9897 114.576 44.0057 114.816L47.1017 120H44.6537ZM40.2077 113.358H42.4757C43.2437 113.358 43.8197 113.166 44.2037 112.782C44.5997 112.398 44.7977 111.882 44.7977 111.234C44.7977 110.586 44.6057 110.082 44.2217 109.722C43.8377 109.35 43.2557 109.164 42.4757 109.164H40.2077V113.358ZM58.6187 114.798C58.6187 115.17 58.5947 115.506 58.5467 115.806H50.9687C51.0287 116.598 51.3227 117.234 51.8507 117.714C52.3787 118.194 53.0267 118.434 53.7947 118.434C54.8987 118.434 55.6787 117.972 56.1347 117.048H58.3487C58.0487 117.96 57.5027 118.71 56.7107 119.298C55.9307 119.874 54.9587 120.162 53.7947 120.162C52.8467 120.162 51.9947 119.952 51.2387 119.532C50.4947 119.1 49.9067 118.5 49.4747 117.732C49.0547 116.952 48.8447 116.052 48.8447 115.032C48.8447 114.012 49.0487 113.118 49.4567 112.35C49.8767 111.57 50.4587 110.97 51.2027 110.55C51.9587 110.13 52.8227 109.92 53.7947 109.92C54.7307 109.92 55.5647 110.124 56.2967 110.532C57.0287 110.94 57.5987 111.516 58.0067 112.26C58.4147 112.992 58.6187 113.838 58.6187 114.798ZM56.4767 114.15C56.4647 113.394 56.1947 112.788 55.6667 112.332C55.1387 111.876 54.4847 111.648 53.7047 111.648C52.9967 111.648 52.3907 111.876 51.8867 112.332C51.3827 112.776 51.0827 113.382 50.9867 114.15H56.4767ZM64.2381 120.162C63.4581 120.162 62.7561 120.024 62.1321 119.748C61.5201 119.46 61.0341 119.076 60.6741 118.596C60.3141 118.104 60.1221 117.558 60.0981 116.958H62.2221C62.2581 117.378 62.4561 117.732 62.8161 118.02C63.1881 118.296 63.6501 118.434 64.2021 118.434C64.7781 118.434 65.2221 118.326 65.5341 118.11C65.8581 117.882 66.0201 117.594 66.0201 117.246C66.0201 116.874 65.8401 116.598 65.4801 116.418C65.1321 116.238 64.5741 116.04 63.8061 115.824C63.0621 115.62 62.4561 115.422 61.9881 115.23C61.5201 115.038 61.1121 114.744 60.7641 114.348C60.4281 113.952 60.2601 113.43 60.2601 112.782C60.2601 112.254 60.4161 111.774 60.7281 111.342C61.0401 110.898 61.4841 110.55 62.0601 110.298C62.6481 110.046 63.3201 109.92 64.0761 109.92C65.2041 109.92 66.1101 110.208 66.7941 110.784C67.4901 111.348 67.8621 112.122 67.9101 113.106H65.8581C65.8221 112.662 65.6421 112.308 65.3181 112.044C64.9941 111.78 64.5561 111.648 64.0041 111.648C63.4641 111.648 63.0501 111.75 62.7621 111.954C62.4741 112.158 62.3301 112.428 62.3301 112.764C62.3301 113.028 62.4261 113.25 62.6181 113.43C62.8101 113.61 63.0441 113.754 63.3201 113.862C63.5961 113.958 64.0041 114.084 64.5441 114.24C65.2641 114.432 65.8521 114.63 66.3081 114.834C66.7761 115.026 67.1781 115.314 67.5141 115.698C67.8501 116.082 68.0241 116.592 68.0361 117.228C68.0361 117.792 67.8801 118.296 67.5681 118.74C67.2561 119.184 66.8121 119.532 66.2361 119.784C65.6721 120.036 65.0061 120.162 64.2381 120.162ZM74.5553 120.162C73.6193 120.162 72.7733 119.952 72.0173 119.532C71.2613 119.1 70.6673 118.5 70.2353 117.732C69.8033 116.952 69.5873 116.052 69.5873 115.032C69.5873 114.024 69.8093 113.13 70.2533 112.35C70.6973 111.57 71.3033 110.97 72.0713 110.55C72.8393 110.13 73.6973 109.92 74.6453 109.92C75.5933 109.92 76.4513 110.13 77.2193 110.55C77.9873 110.97 78.5933 111.57 79.0373 112.35C79.4813 113.13 79.7033 114.024 79.7033 115.032C79.7033 116.04 79.4753 116.934 79.0193 117.714C78.5633 118.494 77.9393 119.1 77.1473 119.532C76.3673 119.952 75.5033 120.162 74.5553 120.162ZM74.5553 118.38C75.0833 118.38 75.5753 118.254 76.0313 118.002C76.4993 117.75 76.8773 117.372 77.1653 116.868C77.4533 116.364 77.5973 115.752 77.5973 115.032C77.5973 114.312 77.4593 113.706 77.1833 113.214C76.9073 112.71 76.5413 112.332 76.0853 112.08C75.6293 111.828 75.1373 111.702 74.6093 111.702C74.0813 111.702 73.5893 111.828 73.1333 112.08C72.6893 112.332 72.3353 112.71 72.0713 113.214C71.8073 113.706 71.6753 114.312 71.6753 115.032C71.6753 116.1 71.9453 116.928 72.4853 117.516C73.0373 118.092 73.7273 118.38 74.5553 118.38ZM86.7358 109.92C87.5158 109.92 88.2118 110.082 88.8238 110.406C89.4478 110.73 89.9338 111.21 90.2818 111.846C90.6298 112.482 90.8038 113.25 90.8038 114.15V120H88.7698V114.456C88.7698 113.568 88.5478 112.89 88.1038 112.422C87.6598 111.942 87.0538 111.702 86.2858 111.702C85.5178 111.702 84.9058 111.942 84.4498 112.422C84.0058 112.89 83.7838 113.568 83.7838 114.456V120H81.7318V110.082H83.7838V111.216C84.1198 110.808 84.5458 110.49 85.0618 110.262C85.5898 110.034 86.1478 109.92 86.7358 109.92ZM92.7373 114.996C92.7373 114 92.9413 113.118 93.3493 112.35C93.7693 111.582 94.3333 110.988 95.0413 110.568C95.7613 110.136 96.5533 109.92 97.4173 109.92C98.1973 109.92 98.8753 110.076 99.4513 110.388C100.039 110.688 100.507 111.066 100.855 111.522V110.082H102.925V120H100.855V118.524C100.507 118.992 100.033 119.382 99.4333 119.694C98.8333 120.006 98.1493 120.162 97.3813 120.162C96.5293 120.162 95.7493 119.946 95.0413 119.514C94.3333 119.07 93.7693 118.458 93.3493 117.678C92.9413 116.886 92.7373 115.992 92.7373 114.996ZM100.855 115.032C100.855 114.348 100.711 113.754 100.423 113.25C100.147 112.746 99.7813 112.362 99.3253 112.098C98.8693 111.834 98.3773 111.702 97.8493 111.702C97.3213 111.702 96.8293 111.834 96.3733 112.098C95.9173 112.35 95.5453 112.728 95.2573 113.232C94.9813 113.724 94.8433 114.312 94.8433 114.996C94.8433 115.68 94.9813 116.28 95.2573 116.796C95.5453 117.312 95.9173 117.708 96.3733 117.984C96.8413 118.248 97.3333 118.38 97.8493 118.38C98.3773 118.38 98.8693 118.248 99.3253 117.984C99.7813 117.72 100.147 117.336 100.423 116.832C100.711 116.316 100.855 115.716 100.855 115.032ZM110.625 109.92C111.405 109.92 112.101 110.082 112.713 110.406C113.337 110.73 113.823 111.21 114.171 111.846C114.519 112.482 114.693 113.25 114.693 114.15V120H112.659V114.456C112.659 113.568 112.437 112.89 111.993 112.422C111.549 111.942 110.943 111.702 110.175 111.702C109.407 111.702 108.795 111.942 108.339 112.422C107.895 112.89 107.673 113.568 107.673 114.456V120H105.621V110.082H107.673V111.216C108.009 110.808 108.435 110.49 108.951 110.262C109.479 110.034 110.037 109.92 110.625 109.92ZM116.626 115.032C116.626 114.012 116.83 113.118 117.238 112.35C117.658 111.57 118.234 110.97 118.966 110.55C119.698 110.13 120.538 109.92 121.486 109.92C122.686 109.92 123.676 110.208 124.456 110.784C125.248 111.348 125.782 112.158 126.058 113.214H123.844C123.664 112.722 123.376 112.338 122.98 112.062C122.584 111.786 122.086 111.648 121.486 111.648C120.646 111.648 119.974 111.948 119.47 112.548C118.978 113.136 118.732 113.964 118.732 115.032C118.732 116.1 118.978 116.934 119.47 117.534C119.974 118.134 120.646 118.434 121.486 118.434C122.674 118.434 123.46 117.912 123.844 116.868H126.058C125.77 117.876 125.23 118.68 124.438 119.28C123.646 119.868 122.662 120.162 121.486 120.162C120.538 120.162 119.698 119.952 118.966 119.532C118.234 119.1 117.658 118.5 117.238 117.732C116.83 116.952 116.626 116.052 116.626 115.032ZM137.193 114.798C137.193 115.17 137.169 115.506 137.121 115.806H129.543C129.603 116.598 129.897 117.234 130.425 117.714C130.953 118.194 131.601 118.434 132.369 118.434C133.473 118.434 134.253 117.972 134.709 117.048H136.923C136.623 117.96 136.077 118.71 135.285 119.298C134.505 119.874 133.533 120.162 132.369 120.162C131.421 120.162 130.569 119.952 129.813 119.532C129.069 119.1 128.481 118.5 128.049 117.732C127.629 116.952 127.419 116.052 127.419 115.032C127.419 114.012 127.623 113.118 128.031 112.35C128.451 111.57 129.033 110.97 129.777 110.55C130.533 110.13 131.397 109.92 132.369 109.92C133.305 109.92 134.139 110.124 134.871 110.532C135.603 110.94 136.173 111.516 136.581 112.26C136.989 112.992 137.193 113.838 137.193 114.798ZM135.051 114.15C135.039 113.394 134.769 112.788 134.241 112.332C133.713 111.876 133.059 111.648 132.279 111.648C131.571 111.648 130.965 111.876 130.461 112.332C129.957 112.776 129.657 113.382 129.561 114.15H135.051Z" fill="#ABB6C7"/>
</svg>
