<svg width="122" height="136" viewBox="0 0 122 136" fill="none" xmlns="http://www.w3.org/2000/svg">
<path d="M61.0012 75C60.7582 75 60.5155 74.9658 60.281 74.895C44.263 70.0878 33.5 55.625 33.5 38.9038V15C33.5 13.6205 34.6195 12.5025 35.9975 12.5C36.1403 12.5 50.3065 12.395 59.4998 5.50053C60.3885 4.83153 61.6115 4.83153 62.5002 5.50053C71.7262 12.4195 85.8585 12.5 86 12.5C87.3805 12.5 88.5 13.6183 88.5 15V38.9038C88.5 55.6225 77.7395 70.0878 61.7228 74.895C61.4883 74.9658 61.2455 75 61.0012 75ZM38.5 17.395V38.9038C38.5 53.147 47.51 65.5028 60.9988 69.8828C74.49 65.5028 83.5 53.1493 83.5 38.9038V17.395C78.9125 17.0728 68.9408 15.7763 61 10.5543C53.0592 15.7765 43.0875 17.0728 38.5 17.395Z" fill="#2AA7FF"/>
<path d="M61 55C51.3503 55 43.5 47.1485 43.5 37.5C43.5 27.8515 51.3503 20 61 20C70.6497 20 78.5 27.8515 78.5 37.5C78.5 47.1485 70.6497 55 61 55ZM61 25C54.108 25 48.5 30.608 48.5 37.5C48.5 44.392 54.108 50 61 50C67.892 50 73.5 44.392 73.5 37.5C73.5 30.608 67.892 25 61 25Z" fill="#2AA7FF"/>
<path d="M66 35H63.5V32.5C63.5 31.1183 62.3805 30 61 30C59.6195 30 58.5 31.1183 58.5 32.5V35H56C54.6195 35 53.5 36.1182 53.5 37.5C53.5 38.8818 54.6195 40 56 40H58.5V42.5C58.5 43.8818 59.6195 45 61 45C62.3805 45 63.5 43.8818 63.5 42.5V40H66C67.3805 40 68.5 38.8818 68.5 37.5C68.5 36.1182 67.3805 35 66 35Z" fill="#2AA7FF"/>
<path d="M22.6878 111.216C22.6878 111.852 22.5378 112.452 22.2378 113.016C21.9378 113.58 21.4578 114.042 20.7978 114.402C20.1378 114.75 19.2918 114.924 18.2598 114.924H15.9918V120H13.9398V107.49H18.2598C19.2198 107.49 20.0298 107.658 20.6898 107.994C21.3618 108.318 21.8598 108.762 22.1838 109.326C22.5198 109.89 22.6878 110.52 22.6878 111.216ZM18.2598 113.25C19.0398 113.25 19.6218 113.076 20.0058 112.728C20.3898 112.368 20.5818 111.864 20.5818 111.216C20.5818 109.848 19.8078 109.164 18.2598 109.164H15.9918V113.25H18.2598ZM25.6889 108.768C25.3169 108.768 25.0049 108.642 24.7529 108.39C24.5009 108.138 24.3749 107.826 24.3749 107.454C24.3749 107.082 24.5009 106.77 24.7529 106.518C25.0049 106.266 25.3169 106.14 25.6889 106.14C26.0489 106.14 26.3549 106.266 26.6069 106.518C26.8589 106.77 26.9849 107.082 26.9849 107.454C26.9849 107.826 26.8589 108.138 26.6069 108.39C26.3549 108.642 26.0489 108.768 25.6889 108.768ZM26.6969 110.082V120H24.6449V110.082H26.6969ZM32.991 120.162C32.211 120.162 31.509 120.024 30.885 119.748C30.273 119.46 29.787 119.076 29.427 118.596C29.067 118.104 28.875 117.558 28.851 116.958H30.975C31.011 117.378 31.209 117.732 31.569 118.02C31.941 118.296 32.403 118.434 32.955 118.434C33.531 118.434 33.975 118.326 34.287 118.11C34.611 117.882 34.773 117.594 34.773 117.246C34.773 116.874 34.593 116.598 34.233 116.418C33.885 116.238 33.327 116.04 32.559 115.824C31.815 115.62 31.209 115.422 30.741 115.23C30.273 115.038 29.865 114.744 29.517 114.348C29.181 113.952 29.013 113.43 29.013 112.782C29.013 112.254 29.169 111.774 29.481 111.342C29.793 110.898 30.237 110.55 30.813 110.298C31.401 110.046 32.073 109.92 32.829 109.92C33.957 109.92 34.863 110.208 35.547 110.784C36.243 111.348 36.615 112.122 36.663 113.106H34.611C34.575 112.662 34.395 112.308 34.071 112.044C33.747 111.78 33.309 111.648 32.757 111.648C32.217 111.648 31.803 111.75 31.515 111.954C31.227 112.158 31.083 112.428 31.083 112.764C31.083 113.028 31.179 113.25 31.371 113.43C31.563 113.61 31.797 113.754 32.073 113.862C32.349 113.958 32.757 114.084 33.297 114.24C34.017 114.432 34.605 114.63 35.061 114.834C35.529 115.026 35.931 115.314 36.267 115.698C36.603 116.082 36.777 116.592 36.789 117.228C36.789 117.792 36.633 118.296 36.321 118.74C36.009 119.184 35.565 119.532 34.989 119.784C34.425 120.036 33.759 120.162 32.991 120.162ZM38.3223 115.032C38.3223 114.012 38.5263 113.118 38.9343 112.35C39.3543 111.57 39.9303 110.97 40.6623 110.55C41.3943 110.13 42.2343 109.92 43.1823 109.92C44.3823 109.92 45.3723 110.208 46.1523 110.784C46.9443 111.348 47.4783 112.158 47.7543 113.214H45.5403C45.3603 112.722 45.0723 112.338 44.6763 112.062C44.2803 111.786 43.7823 111.648 43.1823 111.648C42.3423 111.648 41.6703 111.948 41.1663 112.548C40.6743 113.136 40.4283 113.964 40.4283 115.032C40.4283 116.1 40.6743 116.934 41.1663 117.534C41.6703 118.134 42.3423 118.434 43.1823 118.434C44.3703 118.434 45.1563 117.912 45.5403 116.868H47.7543C47.4663 117.876 46.9263 118.68 46.1343 119.28C45.3423 119.868 44.3583 120.162 43.1823 120.162C42.2343 120.162 41.3943 119.952 40.6623 119.532C39.9303 119.1 39.3543 118.5 38.9343 117.732C38.5263 116.952 38.3223 116.052 38.3223 115.032ZM54.1012 120.162C53.1652 120.162 52.3192 119.952 51.5632 119.532C50.8072 119.1 50.2132 118.5 49.7812 117.732C49.3492 116.952 49.1332 116.052 49.1332 115.032C49.1332 114.024 49.3552 113.13 49.7992 112.35C50.2432 111.57 50.8492 110.97 51.6172 110.55C52.3852 110.13 53.2432 109.92 54.1912 109.92C55.1392 109.92 55.9972 110.13 56.7652 110.55C57.5332 110.97 58.1392 111.57 58.5832 112.35C59.0272 113.13 59.2492 114.024 59.2492 115.032C59.2492 116.04 59.0212 116.934 58.5652 117.714C58.1092 118.494 57.4852 119.1 56.6932 119.532C55.9132 119.952 55.0492 120.162 54.1012 120.162ZM54.1012 118.38C54.6292 118.38 55.1212 118.254 55.5772 118.002C56.0452 117.75 56.4232 117.372 56.7112 116.868C56.9992 116.364 57.1432 115.752 57.1432 115.032C57.1432 114.312 57.0052 113.706 56.7292 113.214C56.4532 112.71 56.0872 112.332 55.6312 112.08C55.1752 111.828 54.6832 111.702 54.1552 111.702C53.6272 111.702 53.1352 111.828 52.6792 112.08C52.2352 112.332 51.8812 112.71 51.6172 113.214C51.3532 113.706 51.2212 114.312 51.2212 115.032C51.2212 116.1 51.4912 116.928 52.0312 117.516C52.5832 118.092 53.2732 118.38 54.1012 118.38ZM63.3297 106.68V120H61.2777V106.68H63.3297ZM70.3258 120.162C69.3898 120.162 68.5438 119.952 67.7878 119.532C67.0318 119.1 66.4378 118.5 66.0058 117.732C65.5738 116.952 65.3578 116.052 65.3578 115.032C65.3578 114.024 65.5798 113.13 66.0238 112.35C66.4678 111.57 67.0738 110.97 67.8418 110.55C68.6098 110.13 69.4678 109.92 70.4158 109.92C71.3638 109.92 72.2218 110.13 72.9898 110.55C73.7578 110.97 74.3638 111.57 74.8078 112.35C75.2518 113.13 75.4738 114.024 75.4738 115.032C75.4738 116.04 75.2458 116.934 74.7898 117.714C74.3338 118.494 73.7098 119.1 72.9178 119.532C72.1378 119.952 71.2738 120.162 70.3258 120.162ZM70.3258 118.38C70.8538 118.38 71.3458 118.254 71.8018 118.002C72.2698 117.75 72.6478 117.372 72.9358 116.868C73.2238 116.364 73.3678 115.752 73.3678 115.032C73.3678 114.312 73.2298 113.706 72.9538 113.214C72.6778 112.71 72.3118 112.332 71.8558 112.08C71.3998 111.828 70.9078 111.702 70.3798 111.702C69.8518 111.702 69.3598 111.828 68.9038 112.08C68.4598 112.332 68.1058 112.71 67.8418 113.214C67.5778 113.706 67.4458 114.312 67.4458 115.032C67.4458 116.1 67.7158 116.928 68.2558 117.516C68.8078 118.092 69.4978 118.38 70.3258 118.38ZM81.4983 109.92C82.2663 109.92 82.9443 110.076 83.5323 110.388C84.1323 110.688 84.6003 111.066 84.9363 111.522V110.082H87.0063V120.162C87.0063 121.074 86.8143 121.884 86.4303 122.592C86.0463 123.312 85.4883 123.876 84.7563 124.284C84.0363 124.692 83.1723 124.896 82.1643 124.896C80.8203 124.896 79.7043 124.578 78.8163 123.942C77.9283 123.318 77.4243 122.466 77.3043 121.386H79.3383C79.4943 121.902 79.8243 122.316 80.3283 122.628C80.8443 122.952 81.4563 123.114 82.1643 123.114C82.9923 123.114 83.6583 122.862 84.1623 122.358C84.6783 121.854 84.9363 121.122 84.9363 120.162V118.506C84.5883 118.974 84.1143 119.37 83.5143 119.694C82.9263 120.006 82.2543 120.162 81.4983 120.162C80.6343 120.162 79.8423 119.946 79.1223 119.514C78.4143 119.07 77.8503 118.458 77.4303 117.678C77.0223 116.886 76.8183 115.992 76.8183 114.996C76.8183 114 77.0223 113.118 77.4303 112.35C77.8503 111.582 78.4143 110.988 79.1223 110.568C79.8423 110.136 80.6343 109.92 81.4983 109.92ZM84.9363 115.032C84.9363 114.348 84.7923 113.754 84.5043 113.25C84.2283 112.746 83.8623 112.362 83.4063 112.098C82.9503 111.834 82.4583 111.702 81.9303 111.702C81.4023 111.702 80.9103 111.834 80.4543 112.098C79.9983 112.35 79.6263 112.728 79.3383 113.232C79.0623 113.724 78.9243 114.312 78.9243 114.996C78.9243 115.68 79.0623 116.28 79.3383 116.796C79.6263 117.312 79.9983 117.708 80.4543 117.984C80.9223 118.248 81.4143 118.38 81.9303 118.38C82.4583 118.38 82.9503 118.248 83.4063 117.984C83.8623 117.72 84.2283 117.336 84.5043 116.832C84.7923 116.316 84.9363 115.716 84.9363 115.032ZM90.7456 108.768C90.3736 108.768 90.0616 108.642 89.8096 108.39C89.5576 108.138 89.4316 107.826 89.4316 107.454C89.4316 107.082 89.5576 106.77 89.8096 106.518C90.0616 106.266 90.3736 106.14 90.7456 106.14C91.1056 106.14 91.4116 106.266 91.6636 106.518C91.9156 106.77 92.0416 107.082 92.0416 107.454C92.0416 107.826 91.9156 108.138 91.6636 108.39C91.4116 108.642 91.1056 108.768 90.7456 108.768ZM91.7536 110.082V120H89.7016V110.082H91.7536ZM98.0477 120.162C97.2677 120.162 96.5657 120.024 95.9417 119.748C95.3297 119.46 94.8437 119.076 94.4837 118.596C94.1237 118.104 93.9317 117.558 93.9077 116.958H96.0317C96.0677 117.378 96.2657 117.732 96.6257 118.02C96.9977 118.296 97.4597 118.434 98.0117 118.434C98.5877 118.434 99.0317 118.326 99.3437 118.11C99.6677 117.882 99.8297 117.594 99.8297 117.246C99.8297 116.874 99.6497 116.598 99.2897 116.418C98.9417 116.238 98.3837 116.04 97.6157 115.824C96.8717 115.62 96.2657 115.422 95.7977 115.23C95.3297 115.038 94.9217 114.744 94.5737 114.348C94.2377 113.952 94.0697 113.43 94.0697 112.782C94.0697 112.254 94.2257 111.774 94.5377 111.342C94.8497 110.898 95.2937 110.55 95.8697 110.298C96.4577 110.046 97.1297 109.92 97.8857 109.92C99.0137 109.92 99.9197 110.208 100.604 110.784C101.3 111.348 101.672 112.122 101.72 113.106H99.6677C99.6317 112.662 99.4517 112.308 99.1277 112.044C98.8037 111.78 98.3657 111.648 97.8137 111.648C97.2737 111.648 96.8597 111.75 96.5717 111.954C96.2837 112.158 96.1397 112.428 96.1397 112.764C96.1397 113.028 96.2357 113.25 96.4277 113.43C96.6197 113.61 96.8537 113.754 97.1297 113.862C97.4057 113.958 97.8137 114.084 98.3537 114.24C99.0737 114.432 99.6617 114.63 100.118 114.834C100.586 115.026 100.988 115.314 101.324 115.698C101.66 116.082 101.834 116.592 101.846 117.228C101.846 117.792 101.69 118.296 101.378 118.74C101.066 119.184 100.622 119.532 100.046 119.784C99.4817 120.036 98.8157 120.162 98.0477 120.162ZM106.457 111.756V117.246C106.457 117.618 106.541 117.888 106.709 118.056C106.889 118.212 107.189 118.29 107.609 118.29H108.869V120H107.249C106.325 120 105.617 119.784 105.125 119.352C104.633 118.92 104.387 118.218 104.387 117.246V111.756H103.217V110.082H104.387V107.616H106.457V110.082H108.869V111.756H106.457Z" fill="#ABB6C7"/>
</svg>
