<svg width="122" height="136" viewBox="0 0 122 136" fill="none" xmlns="http://www.w3.org/2000/svg">
<path d="M76 75H56C49.108 75 43.5 69.392 43.5 62.5V47.5H48.5V62.5C48.5 66.6357 51.8643 70 56 70H76C80.1357 70 83.5 66.6357 83.5 62.5V45H88.5V62.5C88.5 69.392 82.892 75 76 75Z" fill="#2AA7FF"/>
<path d="M46 40C35.0892 40 27.068 32.1045 26.7325 31.7675L30.2677 28.2323C30.3325 28.2958 37.199 34.9998 46.0002 34.9998C54.8015 34.9998 61.668 28.2958 61.7362 28.2285L65.2677 31.7673C64.932 32.1043 56.9105 40 46 40Z" fill="#2AA7FF"/>
<path d="M46 50C34.9723 50 26 41.0277 26 30V16.4037C26 12.9552 28.3365 9.96321 31.6813 9.12721L37.8935 7.57446L39.107 12.4255L32.8948 13.9782C31.779 14.2565 31.0003 15.254 31.0003 16.4037V30C31.0003 38.2715 37.7288 45 46.0003 45C54.2718 45 61.0003 38.2715 61.0003 30V16.4037C61.0003 15.2537 60.2215 14.2565 59.1058 13.9782L52.8935 12.4255L54.107 7.57446L60.3193 9.12721C63.664 9.96346 66.0005 12.9552 66.0005 16.4037V30C66.0005 41.0277 57.0278 50 46 50Z" fill="#2AA7FF"/>
<path d="M38.5 15C37.1195 15 36 13.8805 36 12.5V7.5C36 6.1195 37.1195 5 38.5 5C39.8805 5 41 6.1195 41 7.5V12.5C41 13.8805 39.8805 15 38.5 15Z" fill="#2AA7FF"/>
<path d="M53.5 15C52.1195 15 51 13.8805 51 12.5V7.5C51 6.1195 52.1195 5 53.5 5C54.8805 5 56 6.1195 56 7.5V12.5C56 13.8805 54.8805 15 53.5 15Z" fill="#2AA7FF"/>
<path d="M86 47.5C80.486 47.5 76 43.014 76 37.5C76 31.986 80.486 27.5 86 27.5C91.514 27.5 96 31.986 96 37.5C96 43.014 91.514 47.5 86 47.5ZM86 32.5C83.2425 32.5 81 34.7425 81 37.5C81 40.2575 83.2425 42.5 86 42.5C88.7575 42.5 91 40.2575 91 37.5C91 34.7425 88.7575 32.5 86 32.5Z" fill="#2AA7FF"/>
<path d="M11.3675 111.216C11.3675 111.852 11.2175 112.452 10.9175 113.016C10.6175 113.58 10.1375 114.042 9.47753 114.402C8.81753 114.75 7.97153 114.924 6.93953 114.924H4.67153V120H2.61953V107.49H6.93953C7.89953 107.49 8.70953 107.658 9.36953 107.994C10.0415 108.318 10.5395 108.762 10.8635 109.326C11.1995 109.89 11.3675 110.52 11.3675 111.216ZM6.93953 113.25C7.71953 113.25 8.30153 113.076 8.68553 112.728C9.06953 112.368 9.26153 111.864 9.26153 111.216C9.26153 109.848 8.48753 109.164 6.93953 109.164H4.67153V113.25H6.93953ZM15.3766 111.522C15.6766 111.018 16.0726 110.628 16.5646 110.352C17.0686 110.064 17.6626 109.92 18.3466 109.92V112.044H17.8246C17.0206 112.044 16.4086 112.248 15.9886 112.656C15.5806 113.064 15.3766 113.772 15.3766 114.78V120H13.3246V110.082H15.3766V111.522ZM21.2768 108.768C20.9048 108.768 20.5928 108.642 20.3408 108.39C20.0888 108.138 19.9628 107.826 19.9628 107.454C19.9628 107.082 20.0888 106.77 20.3408 106.518C20.5928 106.266 20.9048 106.14 21.2768 106.14C21.6368 106.14 21.9428 106.266 22.1948 106.518C22.4468 106.77 22.5728 107.082 22.5728 107.454C22.5728 107.826 22.4468 108.138 22.1948 108.39C21.9428 108.642 21.6368 108.768 21.2768 108.768ZM22.2848 110.082V120H20.2328V110.082H22.2848ZM36.9849 109.92C37.7649 109.92 38.4609 110.082 39.0729 110.406C39.6969 110.73 40.1829 111.21 40.5309 111.846C40.8909 112.482 41.0709 113.25 41.0709 114.15V120H39.0369V114.456C39.0369 113.568 38.8149 112.89 38.3709 112.422C37.9269 111.942 37.3209 111.702 36.5529 111.702C35.7849 111.702 35.1729 111.942 34.7169 112.422C34.2729 112.89 34.0509 113.568 34.0509 114.456V120H32.0169V114.456C32.0169 113.568 31.7949 112.89 31.3509 112.422C30.9069 111.942 30.3009 111.702 29.5329 111.702C28.7649 111.702 28.1529 111.942 27.6969 112.422C27.2529 112.89 27.0309 113.568 27.0309 114.456V120H24.9789V110.082H27.0309V111.216C27.3669 110.808 27.7929 110.49 28.3089 110.262C28.8249 110.034 29.3769 109.92 29.9649 109.92C30.7569 109.92 31.4649 110.088 32.0889 110.424C32.7129 110.76 33.1929 111.246 33.5289 111.882C33.8289 111.282 34.2969 110.808 34.9329 110.46C35.5689 110.1 36.2529 109.92 36.9849 109.92ZM42.998 114.996C42.998 114 43.202 113.118 43.61 112.35C44.03 111.582 44.594 110.988 45.302 110.568C46.022 110.136 46.814 109.92 47.678 109.92C48.458 109.92 49.136 110.076 49.712 110.388C50.3 110.688 50.768 111.066 51.116 111.522V110.082H53.186V120H51.116V118.524C50.768 118.992 50.294 119.382 49.694 119.694C49.094 120.006 48.41 120.162 47.642 120.162C46.79 120.162 46.01 119.946 45.302 119.514C44.594 119.07 44.03 118.458 43.61 117.678C43.202 116.886 42.998 115.992 42.998 114.996ZM51.116 115.032C51.116 114.348 50.972 113.754 50.684 113.25C50.408 112.746 50.042 112.362 49.586 112.098C49.13 111.834 48.638 111.702 48.11 111.702C47.582 111.702 47.09 111.834 46.634 112.098C46.178 112.35 45.806 112.728 45.518 113.232C45.242 113.724 45.104 114.312 45.104 114.996C45.104 115.68 45.242 116.28 45.518 116.796C45.806 117.312 46.178 117.708 46.634 117.984C47.102 118.248 47.594 118.38 48.11 118.38C48.638 118.38 49.13 118.248 49.586 117.984C50.042 117.72 50.408 117.336 50.684 116.832C50.972 116.316 51.116 115.716 51.116 115.032ZM57.9333 111.522C58.2333 111.018 58.6293 110.628 59.1213 110.352C59.6253 110.064 60.2193 109.92 60.9033 109.92V112.044H60.3813C59.5773 112.044 58.9653 112.248 58.5453 112.656C58.1373 113.064 57.9333 113.772 57.9333 114.78V120H55.8813V110.082H57.9333V111.522ZM71.7175 110.082L65.6335 124.662H63.5095L65.5255 119.838L61.6195 110.082H63.9055L66.6955 117.642L69.5935 110.082H71.7175ZM77.2578 113.718C77.2578 112.494 77.5398 111.396 78.1038 110.424C78.6798 109.452 79.4538 108.696 80.4258 108.156C81.4098 107.604 82.4838 107.328 83.6478 107.328C84.9798 107.328 86.1618 107.658 87.1938 108.318C88.2378 108.966 88.9938 109.89 89.4618 111.09H86.9958C86.6718 110.43 86.2218 109.938 85.6458 109.614C85.0698 109.29 84.4038 109.128 83.6478 109.128C82.8198 109.128 82.0818 109.314 81.4338 109.686C80.7858 110.058 80.2758 110.592 79.9038 111.288C79.5438 111.984 79.3638 112.794 79.3638 113.718C79.3638 114.642 79.5438 115.452 79.9038 116.148C80.2758 116.844 80.7858 117.384 81.4338 117.768C82.0818 118.14 82.8198 118.326 83.6478 118.326C84.4038 118.326 85.0698 118.164 85.6458 117.84C86.2218 117.516 86.6718 117.024 86.9958 116.364H89.4618C88.9938 117.564 88.2378 118.488 87.1938 119.136C86.1618 119.784 84.9798 120.108 83.6478 120.108C82.4718 120.108 81.3978 119.838 80.4258 119.298C79.4538 118.746 78.6798 117.984 78.1038 117.012C77.5398 116.04 77.2578 114.942 77.2578 113.718ZM91.1797 114.996C91.1797 114 91.3837 113.118 91.7917 112.35C92.2117 111.582 92.7757 110.988 93.4837 110.568C94.2037 110.136 94.9957 109.92 95.8597 109.92C96.6397 109.92 97.3177 110.076 97.8937 110.388C98.4817 110.688 98.9497 111.066 99.2977 111.522V110.082H101.368V120H99.2977V118.524C98.9497 118.992 98.4757 119.382 97.8757 119.694C97.2757 120.006 96.5917 120.162 95.8237 120.162C94.9717 120.162 94.1917 119.946 93.4837 119.514C92.7757 119.07 92.2117 118.458 91.7917 117.678C91.3837 116.886 91.1797 115.992 91.1797 114.996ZM99.2977 115.032C99.2977 114.348 99.1537 113.754 98.8657 113.25C98.5897 112.746 98.2237 112.362 97.7677 112.098C97.3117 111.834 96.8197 111.702 96.2917 111.702C95.7637 111.702 95.2717 111.834 94.8157 112.098C94.3597 112.35 93.9877 112.728 93.6997 113.232C93.4237 113.724 93.2857 114.312 93.2857 114.996C93.2857 115.68 93.4237 116.28 93.6997 116.796C93.9877 117.312 94.3597 117.708 94.8157 117.984C95.2837 118.248 95.7757 118.38 96.2917 118.38C96.8197 118.38 97.3117 118.248 97.7677 117.984C98.2237 117.72 98.5897 117.336 98.8657 116.832C99.1537 116.316 99.2977 115.716 99.2977 115.032ZM106.115 111.522C106.415 111.018 106.811 110.628 107.303 110.352C107.807 110.064 108.401 109.92 109.085 109.92V112.044H108.563C107.759 112.044 107.147 112.248 106.727 112.656C106.319 113.064 106.115 113.772 106.115 114.78V120H104.063V110.082H106.115V111.522ZM120.061 114.798C120.061 115.17 120.037 115.506 119.989 115.806H112.411C112.471 116.598 112.765 117.234 113.293 117.714C113.821 118.194 114.469 118.434 115.237 118.434C116.341 118.434 117.121 117.972 117.577 117.048H119.791C119.491 117.96 118.945 118.71 118.153 119.298C117.373 119.874 116.401 120.162 115.237 120.162C114.289 120.162 113.437 119.952 112.681 119.532C111.937 119.1 111.349 118.5 110.917 117.732C110.497 116.952 110.287 116.052 110.287 115.032C110.287 114.012 110.491 113.118 110.899 112.35C111.319 111.57 111.901 110.97 112.645 110.55C113.401 110.13 114.265 109.92 115.237 109.92C116.173 109.92 117.007 110.124 117.739 110.532C118.471 110.94 119.041 111.516 119.449 112.26C119.857 112.992 120.061 113.838 120.061 114.798ZM117.919 114.15C117.907 113.394 117.637 112.788 117.109 112.332C116.581 111.876 115.927 111.648 115.147 111.648C114.439 111.648 113.833 111.876 113.329 112.332C112.825 112.776 112.525 113.382 112.429 114.15H117.919Z" fill="#ABB6C7"/>
</svg>
