<svg width="122" height="136" viewBox="0 0 122 136" fill="none" xmlns="http://www.w3.org/2000/svg">
<path d="M93.9062 75H28.0938C26.696 75 25.5625 73.8805 25.5625 72.5V7.5C25.5625 6.1195 26.696 5 28.0938 5H93.9062C95.304 5 96.4375 6.1195 96.4375 7.5V72.5C96.4375 73.8805 95.304 75 93.9062 75ZM30.625 70H91.375V10H30.625V70Z" fill="#2AA7FF"/>
<path d="M38.2188 20C39.6167 20 40.75 18.8807 40.75 17.5C40.75 16.1193 39.6167 15 38.2188 15C36.8208 15 35.6875 16.1193 35.6875 17.5C35.6875 18.8807 36.8208 20 38.2188 20Z" fill="#2AA7FF"/>
<path d="M50.7082 65.0973C48.4402 65.0973 46.171 64.244 44.4444 62.5388C43.3284 61.4365 42.5472 60.0875 42.1516 58.6155C40.6609 58.225 39.2953 57.4535 38.1793 56.351C34.7249 52.9403 34.7249 47.3885 38.1793 43.9781C40.8305 41.3573 44.7583 40.7323 48.0385 42.1933L63.221 27.1983C61.7414 23.9598 62.3743 20.0816 65.0255 17.4608C68.4849 14.0491 74.1036 14.0513 77.5557 17.4608C78.6704 18.5618 79.4516 19.9108 79.8485 21.3841C81.3391 21.7746 82.7047 22.5461 83.8208 23.6486C87.2752 27.0593 87.2752 32.611 83.8208 36.0215C81.166 38.64 77.2405 39.2651 73.9616 37.8063L58.7791 52.8013C60.2574 56.0398 59.6246 59.9193 56.9721 62.5388C55.2455 64.244 52.9762 65.0973 50.7082 65.0973ZM44.411 46.4278C43.4458 46.4278 42.4877 46.7928 41.7585 47.513C40.279 48.9755 40.279 51.3533 41.7585 52.8158C42.4642 53.5116 43.4048 53.8998 44.4072 53.9083C45.789 53.9205 46.905 55.0228 46.9174 56.3876C46.926 57.3776 47.3191 58.3065 48.0236 59.0036C49.5044 60.466 51.9118 60.466 53.3926 59.0036C54.7633 57.6486 54.8635 55.4988 53.625 54.0011C52.8031 53.0063 52.876 51.5583 53.7956 50.6515L71.7849 32.8843C72.7045 31.9748 74.1691 31.9053 75.1763 32.7158C76.6953 33.9451 78.8742 33.8401 80.2413 32.4863C81.7208 31.0238 81.7208 28.6461 80.2413 27.1835C79.5356 26.4878 78.595 26.0996 77.5926 26.0911C76.2121 26.0788 75.0948 24.9778 75.0824 23.6143C75.0738 22.6218 74.6807 21.6918 73.9762 20.9958C72.4955 19.5333 70.0867 19.5346 68.6059 20.9971C67.2353 22.3508 67.135 24.5018 68.3748 25.9983C69.1967 26.9921 69.1238 28.4398 68.2042 29.3478L50.2149 47.1151C49.294 48.0246 47.8269 48.0916 46.8235 47.2836C46.114 46.7098 45.2587 46.4278 44.411 46.4278Z" fill="#2AA7FF"/>
<path d="M83.7812 65H73.6562C72.2585 65 71.125 63.8805 71.125 62.5C71.125 61.1195 72.2585 60 73.6562 60H83.7812C85.179 60 86.3125 61.1195 86.3125 62.5C86.3125 63.8805 85.179 65 83.7812 65Z" fill="#2AA7FF"/>
<path d="M83.7812 55H78.7188C77.321 55 76.1875 53.8805 76.1875 52.5C76.1875 51.1195 77.321 50 78.7188 50H83.7812C85.179 50 86.3125 51.1195 86.3125 52.5C86.3125 53.8805 85.179 55 83.7812 55Z" fill="#2AA7FF"/>
<path d="M39.8615 113.754L43.7495 120H41.4455L38.6195 115.464L35.9735 120H33.6875L37.5755 113.754L33.6695 107.49H35.9735L38.8175 112.062L41.4815 107.49H43.7675L39.8615 113.754ZM53.6163 112.62V114.348H46.2183V112.62H53.6163ZM63.0296 120L60.1496 114.996H58.5836V120H56.5316V107.49H60.8516C61.8116 107.49 62.6216 107.658 63.2816 107.994C63.9536 108.33 64.4516 108.78 64.7756 109.344C65.1116 109.908 65.2796 110.538 65.2796 111.234C65.2796 112.05 65.0396 112.794 64.5596 113.466C64.0916 114.126 63.3656 114.576 62.3816 114.816L65.4776 120H63.0296ZM58.5836 113.358H60.8516C61.6196 113.358 62.1956 113.166 62.5796 112.782C62.9756 112.398 63.1736 111.882 63.1736 111.234C63.1736 110.586 62.9816 110.082 62.5976 109.722C62.2136 109.35 61.6316 109.164 60.8516 109.164H58.5836V113.358ZM67.2207 114.996C67.2207 114 67.4247 113.118 67.8327 112.35C68.2527 111.582 68.8167 110.988 69.5247 110.568C70.2447 110.136 71.0367 109.92 71.9007 109.92C72.6807 109.92 73.3587 110.076 73.9347 110.388C74.5227 110.688 74.9907 111.066 75.3387 111.522V110.082H77.4087V120H75.3387V118.524C74.9907 118.992 74.5167 119.382 73.9167 119.694C73.3167 120.006 72.6327 120.162 71.8647 120.162C71.0127 120.162 70.2327 119.946 69.5247 119.514C68.8167 119.07 68.2527 118.458 67.8327 117.678C67.4247 116.886 67.2207 115.992 67.2207 114.996ZM75.3387 115.032C75.3387 114.348 75.1947 113.754 74.9067 113.25C74.6307 112.746 74.2647 112.362 73.8087 112.098C73.3527 111.834 72.8607 111.702 72.3327 111.702C71.8047 111.702 71.3127 111.834 70.8567 112.098C70.4007 112.35 70.0287 112.728 69.7407 113.232C69.4647 113.724 69.3267 114.312 69.3267 114.996C69.3267 115.68 69.4647 116.28 69.7407 116.796C70.0287 117.312 70.4007 117.708 70.8567 117.984C71.3247 118.248 71.8167 118.38 72.3327 118.38C72.8607 118.38 73.3527 118.248 73.8087 117.984C74.2647 117.72 74.6307 117.336 74.9067 116.832C75.1947 116.316 75.3387 115.716 75.3387 115.032ZM89.0319 110.082L82.9479 124.662H80.8239L82.8399 119.838L78.9339 110.082H81.2199L84.0099 117.642L86.9079 110.082H89.0319Z" fill="#ABB6C7"/>
</svg>
